<svg width="56" height="37" viewBox="0 0 56 37" fill="none" xmlns="http://www.w3.org/2000/svg">
<path d="M3 16C1.61929 16 0.5 17.1193 0.5 18.5C0.5 19.8807 1.61929 21 3 21V16ZM54.7678 20.2678C55.7441 19.2915 55.7441 17.7085 54.7678 16.7322L38.8579 0.82233C37.8816 -0.15398 36.2986 -0.15398 35.3223 0.82233C34.346 1.79864 34.346 3.38155 35.3223 4.35786L49.4645 18.5L35.3223 32.6421C34.346 33.6184 34.346 35.2014 35.3223 36.1777C36.2986 37.154 37.8816 37.154 38.8579 36.1777L54.7678 20.2678ZM3 21H53V16H3V21Z" fill="#D4D4D4"/>
</svg>
